<svg width="20" height="21" viewBox="0 0 20 21" fill="none" xmlns="http://www.w3.org/2000/svg">
<path fill-rule="evenodd" clip-rule="evenodd" d="M9.37359 3.41687C6.01913 3.41687 3.2998 6.13619 3.2998 9.49067C3.2998 12.8451 6.01913 15.5644 9.37359 15.5644C12.728 15.5644 15.4473 12.8451 15.4473 9.49067C15.4473 6.13619 12.728 3.41687 9.37359 3.41687ZM2.0498 9.49067C2.0498 5.44585 5.32877 2.16687 9.37359 2.16687C13.4184 2.16687 16.6973 5.44585 16.6973 9.49067C16.6973 13.5355 13.4184 16.8144 9.37359 16.8144C5.32877 16.8144 2.0498 13.5355 2.0498 9.49067Z" fill="#717784"/>
<path fill-rule="evenodd" clip-rule="evenodd" d="M13.9467 13.5397L18.6263 18.2072L17.7435 19.0922L13.064 14.4247L13.9467 13.5397Z" fill="#717784"/>
</svg>
